<?xml version="1.0" standalone="no"?>
<!DOCTYPE svg PUBLIC "-//W3C//DTD SVG 20010904//EN"
 "http://www.w3.org/TR/2001/REC-SVG-20010904/DTD/svg10.dtd">
<svg version="1.0" xmlns="http://www.w3.org/2000/svg"
 width="500.000000pt" height="500.000000pt" viewBox="0 0 500.000000 500.000000"
 preserveAspectRatio="xMidYMid meet">
<metadata>
Created by potrace 1.14, written by Peter Selinger 2001-2017
</metadata>
<g transform="translate(0.000000,500.000000) scale(0.100000,-0.100000)"
fill="#000000" stroke="none">
<path d="M3048 4473 c-50 -31 -54 -54 -53 -276 0 -227 4 -243 69 -274 45 -21
95 -11 132 28 l29 30 3 207 c3 177 1 211 -13 238 -32 60 -111 82 -167 47z"/>
<path d="M1985 4032 c-72 -16 -116 -103 -84 -165 19 -36 261 -276 299 -296 61
-32 127 -10 157 53 30 64 16 91 -126 232 -70 71 -137 137 -148 147 -24 21 -70
35 -98 29z"/>
<path d="M4185 4029 c-20 -6 -79 -57 -169 -148 -76 -76 -143 -146 -148 -155
-32 -57 -9 -125 51 -156 70 -35 94 -22 260 144 141 141 144 145 149 194 4 44
1 53 -24 81 -34 37 -77 51 -119 40z"/>
<path d="M2975 3784 c-138 -22 -203 -42 -320 -102 -165 -83 -331 -249 -419
-420 -13 -25 -20 -30 -34 -24 -15 8 -49 15 -172 37 -120 22 -346 12 -495 -21
-387 -86 -743 -365 -920 -722 -55 -112 -95 -224 -110 -307 -6 -31 -14 -72 -21
-102 -10 -46 -13 -339 -4 -375 5 -18 11 -50 14 -70 36 -242 169 -502 360 -706
46 -49 158 -143 226 -189 96 -65 275 -149 367 -172 21 -5 66 -17 99 -25 34 -8
90 -19 125 -23 75 -9 1914 -9 2009 0 252 24 466 121 651 295 314 296 417 759
260 1168 -62 160 -204 354 -326 442 -27 20 -55 41 -61 47 -6 5 -39 26 -73 45
-67 38 -64 31 -44 120 3 14 5 77 5 140 -1 372 -213 709 -548 873 -58 29 -173
73 -181 69 -2 0 -17 4 -35 9 -87 25 -241 30 -353 13z"/>
<path d="M4263 2910 c-79 -52 -63 -175 27 -208 38 -13 410 -9 437 6 77 42 85
145 15 197 -25 18 -45 20 -237 23 -198 2 -212 1 -242 -18z"/>
</g>
</svg>
