<svg xmlns="http://www.w3.org/2000/svg" fill="#444"  height="24" viewBox="0 96 960 960" width="24"><path d="M210 1022q-57.125 0-96.562-40.138Q74 941.725 74 886V345q0-57.125 39.438-96.562Q152.875 209 210 209h15v-23q0-22.6 17.2-39.3Q259.4 130 282 130q24 0 40 16.7t16 39.3v23h284v-23q0-22.6 16.5-39.3 16.5-16.7 40-16.7t40 16.7Q735 163.4 735 186v23h15q57.125 0 96.562 39.438Q886 287.875 886 345v541q0 55.725-39.438 95.862Q807.125 1022 750 1022H210Zm0-136h540V488H210v398Zm0-488h540v-53H210v53Zm0 0v-53 53Zm270.491 268q-20.909 0-35.7-14.589Q430 636.821 430 616.211q0-20.611 14.791-35.411t35.7-14.8q20.909 0 35.209 14.589 14.3 14.59 14.3 35.2 0 20.611-14.3 35.411T480.491 666Zm-160.28 0q-20.611 0-35.411-14.589-14.8-14.59-14.8-35.2 0-20.611 14.589-35.411 14.59-14.8 35.2-14.8 20.611 0 35.411 14.589 14.8 14.59 14.8 35.2 0 20.611-14.589 35.411-14.59 14.8-35.2 14.8Zm319.298 0Q620 666 605 651.411q-15-14.59-15-35.2 0-20.611 15-35.411t35.009-14.8q20.009 0 35 14.589Q690 595.179 690 615.789q0 20.611-14.791 35.411t-35.7 14.8ZM480.491 826q-20.909 0-35.7-15Q430 796 430 775.991t14.791-35Q459.582 726 480.491 726q20.909 0 35.209 14.791 14.3 14.791 14.3 35.7Q530 796 515.7 811t-35.209 15Zm-160.28 0q-20.611 0-35.411-15T270 775.991q0-20.009 14.589-35Q299.179 726 319.789 726q20.611 0 35.411 14.791t14.8 35.7Q370 796 355.411 811q-14.59 15-35.2 15Zm319.298 0Q620 826 605 811t-15-35.009q0-20.009 15-35T640.009 726q20.009 0 35 14.791t14.991 35.7Q690 796 675.209 811t-35.7 15Z"/></svg>