<svg xmlns="http://www.w3.org/2000/svg" height="48" viewBox="0 96 960 960" width="48"><path d="M444 1034v-82q-139-15-232.5-108T103 612H21v-73h82q15-139 108.5-232.5T444 197v-82h73v82q138 16 231.5 109.5T858 539h82v73h-82q-16 139-109.5 232T517 952v82h-73Zm36.5-154q126.5 0 216-88.879t89.5-216Q786 448 696.5 358.5 607 269 480.5 269t-216 89.5Q175 448 175 575.121q0 127.121 89.5 216T480.5 880Zm.5-141q-69 0-116.5-47.5T317 575q0-69 47.5-116.5t116-47.5q68.5 0 116.5 47.5T645 575q0 69-47.888 116.5Q549.225 739 481 739Zm-.416-73Q518 666 545 639.294T572 575q0-37.588-27-64.294Q518 484 480.5 484t-64 26.706Q390 537.412 390 575q0 37.588 26.584 64.294 26.584 26.706 64 26.706Zm.416-91Z"/></svg>