<svg xmlns="http://www.w3.org/2000/svg" fill="#444" height="24" viewBox="0 96 960 960" width="24"><path d="M540 550V439q0-24.375-17.391-42.188Q505.217 379 480.421 379q-24.796 0-42.609 17.812Q420 414.625 420 439v133q0 14 5 26.143T440 620l113 113q18.289 17 42.144 17.5Q619 751 637.5 733q17.5-17 18-42.5T638 647l-98-97Zm-60 472q-92.64 0-174.467-34.604-81.828-34.603-142.077-94.852-60.249-60.249-94.852-142.077Q34 668.64 34 576q0-92.896 34.662-174.449 34.663-81.553 95.175-141.942 60.511-60.389 142.075-94.999Q387.476 130 480 130q92.886 0 174.476 34.593T796.44 259.56q60.374 60.374 94.967 141.99Q926 483.167 926 576.083q0 92.917-34.61 174.243t-94.999 141.837q-60.389 60.512-141.942 95.174Q572.896 1022 480 1022Zm0-446Zm-.247 310Q609 886 699.5 796.238q90.5-89.761 90.5-220Q790 446 699.747 356t-219.5-90Q351 266 260.5 355.762q-90.5 89.761-90.5 220Q170 706 260.253 796t219.5 90Z"/></svg>