<svg xmlns="http://www.w3.org/2000/svg" height="24" viewBox="0 96 960 960" width="24"><path d="M437 996q-37 0-68.5-15.5T315 939q-26-30-10-66t58-36q11 0 22.5 5.5T409 858q7 5 13.5 8.5T437 870q13 0 22.5-10t9.5-23q0-13-9.5-22.5T437 805H128q-26 0-44.5-18.5T65 742q0-26 18.5-44.5T128 679h309q66 0 112 45.5T595 837q0 67-46 113t-112 46ZM128 473q-26 0-44.5-18.5T65 410q0-26 18.5-44.5T128 347h469q22 0 37-15t15-37q0-22-15-37.5T597 242q-12 0-22.5 5T558 260q-17 20-31 27.5t-31 7.5q-35 0-53.5-30t1.5-63q23-40 64-63t89-23q72 0 125 49.5T775 295q0 80-53 129t-125 49H128Zm685 369q-31 20-63.5 5.5T717 793q0-17 8-30.5t28-32.5q8-7 12-17.5t4-21.5q0-22-15-37t-37-15H128q-26 0-44.5-18.5T65 576q0-26 18.5-44.5T128 513h589q72 0 125 50t53 128q0 50-23 89t-59 62Z"/></svg>